<svg width="602" height="604" viewBox="0 0 602 604" fill="none" xmlns="http://www.w3.org/2000/svg">
<g clip-path="url(#clip0_44_2400)">
<g filter="url(#filter0_d_44_2400)">
<rect x="185" y="402" width="120" height="120" rx="12.265" fill="white"/>
</g>
<g clip-path="url(#clip1_44_2400)">
<path d="M258.88 453.066V446.57C259.739 446.169 260.466 445.532 260.976 444.734C261.487 443.935 261.761 443.008 261.765 442.061V441.912C261.765 439.149 259.525 436.909 256.762 436.909H256.613C253.85 436.909 251.61 439.149 251.61 441.912V442.061C251.614 443.008 251.888 443.935 252.399 444.734C252.909 445.532 253.636 446.169 254.495 446.57V453.066C252.027 453.444 249.703 454.467 247.758 456.032L229.941 442.154C230.068 441.696 230.135 441.224 230.142 440.751C230.144 439.636 229.816 438.545 229.198 437.617C228.58 436.689 227.701 435.965 226.672 435.536C225.642 435.108 224.509 434.994 223.415 435.21C222.321 435.425 221.316 435.961 220.526 436.748C219.737 437.535 219.198 438.538 218.979 439.632C218.76 440.725 218.87 441.859 219.295 442.889C219.72 443.92 220.441 444.801 221.368 445.422C222.294 446.043 223.383 446.375 224.498 446.376C225.474 446.372 226.431 446.111 227.274 445.621L244.819 459.274C241.593 464.147 241.68 470.497 245.036 475.281L239.7 480.619C239.268 480.481 238.819 480.407 238.366 480.401C235.811 480.403 233.74 482.476 233.741 485.032C233.742 487.587 235.813 489.658 238.369 489.659C240.924 489.66 242.997 487.589 242.999 485.034C242.993 484.581 242.92 484.132 242.782 483.7L248.061 478.419C252.777 482.051 259.256 482.363 264.301 479.204C269.345 476.044 271.891 470.078 270.683 464.25C269.474 458.421 264.766 453.96 258.88 453.066ZM256.692 474.433C255.717 474.459 254.746 474.29 253.838 473.935C252.929 473.58 252.101 473.046 251.402 472.366C250.702 471.685 250.147 470.872 249.767 469.973C249.388 469.074 249.192 468.108 249.192 467.133C249.192 466.157 249.388 465.191 249.767 464.292C250.147 463.394 250.702 462.58 251.402 461.899C252.101 461.219 252.929 460.685 253.838 460.33C254.746 459.975 255.717 459.806 256.692 459.832C260.622 459.97 263.738 463.194 263.74 467.127C263.742 471.06 260.63 474.288 256.7 474.43" fill="#FF7A59"/>
</g>
<g filter="url(#filter1_d_44_2400)">
<rect x="185" y="122" width="120" height="120" rx="12.265" fill="white"/>
</g>
<g clip-path="url(#clip2_44_2400)">
<path d="M255.926 176.043H270.215C271.565 176.043 272.66 177.129 272.66 178.468V191.383C272.66 196.307 268.638 200.298 263.676 200.298H263.634C258.672 200.299 254.649 196.308 254.649 191.385C254.649 191.384 254.649 191.384 254.649 191.383V177.31C254.649 176.61 255.221 176.043 255.926 176.043Z" fill="#5059C9"/>
<path d="M265.584 173.489C268.781 173.489 271.373 170.917 271.373 167.745C271.373 164.572 268.781 162 265.584 162C262.387 162 259.795 164.572 259.795 167.745C259.795 170.917 262.387 173.489 265.584 173.489Z" fill="#5059C9"/>
<path d="M247.573 173.489C252.191 173.489 255.935 169.774 255.935 165.192C255.935 160.609 252.191 156.894 247.573 156.894C242.955 156.894 239.211 160.609 239.211 165.192C239.211 169.774 242.955 173.489 247.573 173.489Z" fill="#7B83EB"/>
<path d="M258.723 176.043H235.136C233.802 176.075 232.747 177.174 232.778 178.498V193.228C232.592 201.171 238.925 207.763 246.93 207.958C254.934 207.763 261.267 201.171 261.081 193.228V178.498C261.112 177.174 260.057 176.075 258.723 176.043Z" fill="#7B83EB"/>
<path opacity="0.1" d="M248.216 176.043V196.685C248.21 197.632 247.632 198.482 246.75 198.843C246.469 198.96 246.167 199.021 245.862 199.021H233.91C233.743 198.6 233.589 198.179 233.46 197.745C233.01 196.28 232.78 194.757 232.778 193.226V178.494C232.747 177.172 233.801 176.075 235.133 176.043H248.216Z" fill="black"/>
<path opacity="0.2" d="M246.93 176.043V197.962C246.93 198.264 246.868 198.564 246.75 198.843C246.386 199.718 245.529 200.292 244.575 200.298H234.515C234.296 199.877 234.09 199.455 233.91 199.021C233.73 198.587 233.589 198.179 233.46 197.745C233.01 196.28 232.78 194.757 232.778 193.226V178.494C232.747 177.172 233.801 176.075 235.133 176.043H246.93Z" fill="black"/>
<path opacity="0.2" d="M246.93 176.043V195.409C246.92 196.695 245.872 197.735 244.575 197.745H233.46C233.01 196.28 232.78 194.757 232.778 193.226V178.494C232.747 177.172 233.801 176.075 235.133 176.043H246.93Z" fill="black"/>
<path opacity="0.2" d="M245.643 176.043V195.409C245.633 196.695 244.585 197.735 243.289 197.745H233.46C233.01 196.28 232.78 194.757 232.778 193.226V178.494C232.747 177.172 233.801 176.075 235.133 176.043H245.643Z" fill="black"/>
<path opacity="0.1" d="M248.216 169.443V173.464C247.997 173.477 247.791 173.489 247.573 173.489C247.354 173.489 247.148 173.477 246.93 173.464C246.495 173.435 246.065 173.367 245.643 173.26C243.038 172.647 240.886 170.834 239.854 168.383C239.676 167.971 239.538 167.544 239.442 167.106H245.862C247.16 167.111 248.211 168.154 248.216 169.443Z" fill="black"/>
<path opacity="0.2" d="M246.93 170.719V173.464C246.495 173.435 246.065 173.367 245.643 173.26C243.038 172.647 240.886 170.834 239.854 168.383H244.575C245.874 168.388 246.925 169.431 246.93 170.719Z" fill="black"/>
<path opacity="0.2" d="M246.93 170.719V173.464C246.495 173.435 246.065 173.367 245.643 173.26C243.038 172.647 240.886 170.834 239.854 168.383H244.575C245.874 168.388 246.925 169.431 246.93 170.719Z" fill="black"/>
<path opacity="0.2" d="M245.643 170.719V173.26C243.038 172.647 240.886 170.834 239.854 168.383H243.289C244.587 168.388 245.638 169.431 245.643 170.719Z" fill="black"/>
<path d="M219.698 168.383H243.285C244.587 168.383 245.643 169.431 245.643 170.723V194.128C245.643 195.42 244.587 196.468 243.285 196.468H219.698C218.396 196.468 217.34 195.42 217.34 194.128V170.723C217.34 169.431 218.396 168.383 219.698 168.383Z" fill="url(#paint0_linear_44_2400)"/>
<path d="M237.698 177.291H232.983V190.031H229.979V177.291H225.286V174.82H237.698V177.291Z" fill="white"/>
</g>
<g filter="url(#filter2_d_44_2400)">
<rect x="185" y="262" width="120" height="120" rx="12.265" fill="white"/>
</g>
<g clip-path="url(#clip3_44_2400)">
<path d="M251.915 322.012C251.916 324.007 251.556 325.985 250.853 327.852C248.985 328.555 247.006 328.915 245.011 328.916H244.988C242.933 328.913 240.965 328.537 239.148 327.853C238.445 325.986 238.084 324.007 238.085 322.012V321.988C238.084 319.994 238.443 318.016 239.146 316.149C241.013 315.445 242.992 315.084 244.988 315.085H245.011C247.007 315.084 248.986 315.445 250.853 316.149C251.556 318.015 251.916 319.993 251.915 321.988V322.012L251.915 322.012ZM272.275 317.39H256.13L267.546 305.973C266.65 304.715 265.65 303.533 264.558 302.441V302.44C263.465 301.348 262.284 300.35 261.026 299.454L249.609 310.871V294.725C248.09 294.47 246.553 294.341 245.014 294.34H244.985C243.419 294.341 241.885 294.474 240.39 294.725V310.871L228.973 299.454C227.715 300.35 226.534 301.349 225.443 302.442L225.437 302.446C224.346 303.537 223.348 304.717 222.453 305.973L233.871 317.39H217.725C217.725 317.39 217.34 320.423 217.34 321.99V322.01C217.34 323.577 217.473 325.114 217.725 326.61H233.871L222.453 338.027C224.249 340.547 226.453 342.751 228.973 344.547L240.39 333.129V349.275C241.907 349.53 243.442 349.658 244.98 349.66H245.019C246.557 349.658 248.092 349.53 249.609 349.275V333.129L261.026 344.547C262.284 343.651 263.465 342.652 264.558 341.56L264.56 341.558C265.651 340.465 266.65 339.284 267.546 338.027L256.128 326.61H272.275C272.527 325.117 272.658 323.585 272.659 322.02V321.98C272.658 320.415 272.527 318.883 272.275 317.39Z" fill="#FF4A00"/>
</g>
<g filter="url(#filter3_d_44_2400)">
<rect x="325" y="79" width="120" height="120" rx="12.265" fill="white"/>
</g>
<path d="M385.081 148.805C380.052 148.805 375.347 147.021 371.454 144.263C366.587 140.694 363.667 135.179 362.856 130.313C362.856 129.988 362.694 129.502 362.694 129.339C362.532 127.88 363.505 126.42 365.127 126.42C365.614 126.42 365.776 126.42 366.263 126.42C367.398 131.448 370.156 135.017 372.914 137.288C376.645 140.37 381.025 141.506 384.919 141.506C395.301 141.668 405.522 132.422 412.011 122.364C411.524 121.878 410.875 121.553 410.226 121.553H359.774C358.476 121.553 357.34 122.689 357.34 123.986V154.32C357.34 155.618 358.476 156.754 359.774 156.754H410.226C411.524 156.754 412.659 155.618 412.659 154.32V127.88C404.061 142.965 394.166 148.805 385.081 148.805Z" fill="#00BAFF"/>
<path d="M384.918 141.343C381.025 141.181 376.645 140.208 372.914 137.126C370.156 134.855 367.398 131.286 366.262 126.257C365.776 126.257 365.451 126.257 365.127 126.257C363.505 126.257 362.369 127.717 362.693 129.177C362.693 129.502 362.856 129.826 362.856 130.15C363.667 135.017 366.587 140.532 371.454 144.101C375.185 146.858 379.889 148.643 385.081 148.643C394.328 148.643 404.061 142.803 412.659 127.717V123.662C412.659 123.175 412.497 122.526 412.172 122.202C405.521 132.259 395.463 141.505 384.918 141.343Z" fill="white"/>
<g filter="url(#filter4_d_44_2400)">
<rect x="325" y="219" width="120" height="120" rx="12.265" fill="white"/>
</g>
<g clip-path="url(#clip4_44_2400)">
<path d="M399.558 264.442L386.456 262.987L370.442 264.442L368.986 279L370.442 293.558L385 295.378L399.558 293.558L401.013 278.636L399.558 264.442Z" fill="white"/>
<path d="M376.415 287.028C375.327 286.293 374.573 285.22 374.162 283.8L376.688 282.76C376.917 283.633 377.317 284.31 377.889 284.79C378.457 285.271 379.148 285.507 379.956 285.507C380.782 285.507 381.492 285.256 382.085 284.754C382.678 284.251 382.977 283.611 382.977 282.836C382.977 282.043 382.664 281.395 382.038 280.892C381.412 280.39 380.626 280.139 379.687 280.139H378.227V277.639H379.537C380.345 277.639 381.026 277.421 381.579 276.984C382.132 276.547 382.409 275.95 382.409 275.19C382.409 274.513 382.161 273.974 381.666 273.57C381.172 273.166 380.545 272.962 379.785 272.962C379.042 272.962 378.453 273.159 378.016 273.556C377.579 273.952 377.263 274.44 377.063 275.015L374.562 273.974C374.893 273.035 375.501 272.205 376.393 271.489C377.285 270.772 378.424 270.411 379.807 270.411C380.829 270.411 381.75 270.608 382.565 271.004C383.381 271.401 384.021 271.951 384.483 272.649C384.946 273.352 385.175 274.138 385.175 275.011C385.175 275.903 384.96 276.656 384.531 277.275C384.101 277.894 383.573 278.367 382.947 278.698V278.847C383.774 279.193 384.447 279.721 384.978 280.43C385.506 281.14 385.771 281.988 385.771 282.978C385.771 283.968 385.52 284.852 385.018 285.628C384.516 286.403 383.821 287.014 382.94 287.458C382.056 287.902 381.062 288.128 379.959 288.128C378.682 288.131 377.503 287.764 376.415 287.028Z" fill="#1A73E8"/>
<path d="M391.915 274.495L389.156 276.5L387.77 274.396L392.745 270.808H394.652V287.735H391.915V274.495Z" fill="#1A73E8"/>
<path d="M399.558 306.66L412.659 293.558L406.109 290.646L399.558 293.558L396.646 300.109L399.558 306.66Z" fill="#EA4335"/>
<path d="M367.531 300.109L370.442 306.66H399.557V293.558H370.442L367.531 300.109Z" fill="#34A853"/>
<path d="M361.708 251.34C359.295 251.34 357.34 253.295 357.34 255.708V293.558L363.891 296.469L370.442 293.558V264.442H399.557L402.469 257.891L399.558 251.34H361.708Z" fill="#4285F4"/>
<path d="M357.34 293.558V302.292C357.34 304.705 359.295 306.66 361.708 306.66H370.442V293.558H357.34Z" fill="#188038"/>
<path d="M399.558 264.442V293.558H412.659V264.442L406.109 261.531L399.558 264.442Z" fill="#FBBC04"/>
<path d="M412.659 264.442V255.708C412.659 253.295 410.705 251.34 408.292 251.34H399.558V264.442H412.659Z" fill="#1967D2"/>
</g>
<g filter="url(#filter5_d_44_2400)">
<rect x="325" y="359" width="120" height="120" rx="12.265" fill="white"/>
</g>
<g clip-path="url(#clip5_44_2400)">
<mask id="mask0_44_2400" style="mask-type:luminance" maskUnits="userSpaceOnUse" x="357" y="391" width="56" height="56">
<path d="M357.341 391.34H412.66V446.66H357.341V391.34Z" fill="white"/>
</mask>
<g mask="url(#mask0_44_2400)">
<path d="M361.272 418.999C361.272 428.392 366.73 436.508 374.645 440.355L363.327 409.343C361.97 412.381 361.27 415.672 361.272 418.999ZM401.019 417.802C401.019 414.87 399.965 412.839 399.062 411.258C397.859 409.303 396.732 407.648 396.732 405.694C396.732 403.512 398.386 401.482 400.716 401.482C400.821 401.482 400.921 401.495 401.024 401.501C396.802 397.634 391.178 395.272 385 395.272C376.711 395.272 369.418 399.525 365.175 405.967C365.732 405.984 366.257 405.995 366.702 405.995C369.184 405.995 373.026 405.694 373.026 405.694C374.305 405.619 374.456 407.497 373.178 407.649C373.178 407.649 371.892 407.8 370.462 407.875L379.103 433.577L384.296 418.003L380.599 407.874C379.321 407.799 378.11 407.648 378.11 407.648C376.832 407.573 376.982 405.618 378.26 405.694C378.26 405.694 382.179 405.995 384.51 405.995C386.992 405.995 390.834 405.694 390.834 405.694C392.114 405.618 392.265 407.497 390.986 407.648C390.986 407.648 389.698 407.799 388.271 407.874L396.845 433.381L399.212 425.473C400.238 422.191 401.019 419.833 401.019 417.802Z" fill="#00749A"/>
<path d="M385.417 421.075L378.297 441.762C380.474 442.403 382.731 442.729 385 442.729C387.764 442.729 390.413 442.251 392.88 441.384C392.814 441.28 392.757 441.171 392.711 441.057L385.417 421.075ZM405.821 407.615C405.923 408.371 405.981 409.183 405.981 410.055C405.981 412.463 405.531 415.17 404.176 418.554L396.928 439.51C403.983 435.396 408.728 427.754 408.728 418.999C408.734 415.02 407.734 411.104 405.821 407.615Z" fill="#00749A"/>
<path d="M385.001 391.34C369.749 391.34 357.341 403.748 357.341 418.999C357.341 434.252 369.749 446.66 385.001 446.66C400.251 446.66 412.662 434.253 412.662 418.999C412.661 403.748 400.251 391.34 385.001 391.34ZM385.001 445.392C370.449 445.392 358.609 433.552 358.609 418.999C358.609 404.448 370.448 392.609 385.001 392.609C399.552 392.609 411.391 404.448 411.391 418.999C411.391 433.552 399.552 445.392 385.001 445.392Z" fill="#00749A"/>
</g>
</g>
<g filter="url(#filter6_d_44_2400)">
<rect x="44" y="79" width="120" height="120" rx="12.265" fill="white"/>
</g>
<path d="M103.995 144.646L131.659 116.629V115.019C131.659 112.518 129.666 110.489 127.206 110.489H80.7935C78.3342 110.489 76.3403 112.518 76.3403 115.019V148.059L91.6972 132.527L103.995 144.646Z" fill="#FF9C0B"/>
<path d="M91.7018 145.183L76.3403 160.776V162.232C76.3403 164.734 78.3342 166.762 80.7935 166.762H127.206C129.666 166.762 131.659 164.734 131.659 162.232V129.525L103.995 157.542L91.7018 145.183Z" fill="#FB5722"/>
<g filter="url(#filter7_d_44_2400)">
<path d="M76.3403 148.059L91.6972 132.527L103.995 144.646L131.659 116.629L131.655 129.529L103.995 157.542L91.7018 145.183L76.3403 160.776V148.059Z" fill="#F2F2F2"/>
</g>
<path d="M97.8526 151.368L97.8537 138.593L91.7018 145.183L97.8526 151.368Z" fill="#FF9B07"/>
<g filter="url(#filter8_d_44_2400)">
<rect x="45" y="219" width="120" height="120" rx="12.265" fill="white"/>
</g>
<g clip-path="url(#clip6_44_2400)">
<path fill-rule="evenodd" clip-rule="evenodd" d="M103.556 262.192V282.933H86.2528L103.556 262.192ZM103.556 254.75C103.556 257.026 102.644 259.212 101.024 260.821C99.3986 262.435 97.1976 263.34 94.9064 263.34C92.6108 263.34 90.4098 262.435 88.7891 260.821C87.1641 259.212 86.2528 257.026 86.2528 254.75H103.556ZM106.406 282.937C106.406 280.661 107.317 278.475 108.942 276.862C110.563 275.252 112.764 274.347 115.059 274.347C117.355 274.347 119.552 275.252 121.177 276.862C122.797 278.475 123.709 280.661 123.709 282.937H106.406ZM106.406 254.75H123.713L106.406 275.491V254.75ZM116.082 300.689C116.306 300.693 116.525 300.676 116.74 300.638C116.955 300.6 117.17 300.544 117.376 300.463C117.578 300.386 117.776 300.288 117.961 300.173C118.146 300.053 118.322 299.921 118.481 299.771L119.668 301.044C118.885 301.846 117.798 302.44 116.104 302.44C113.202 302.44 111.328 300.527 111.328 297.944C111.319 297.35 111.427 296.766 111.646 296.215C111.87 295.664 112.201 295.165 112.622 294.746C113.043 294.323 113.546 293.995 114.096 293.773C114.651 293.546 115.244 293.435 115.842 293.448C118.722 293.448 120.351 295.621 120.209 298.64H113.4C113.641 299.895 114.531 300.693 116.078 300.693L116.082 300.689ZM118.15 297.201C117.965 296.031 117.26 295.169 115.855 295.169C114.548 295.169 113.632 295.907 113.4 297.201C113.4 297.201 118.155 297.201 118.15 297.201ZM71.3831 300.591L76.6191 295.305H71.5077V293.649H79.0522V295.34L73.8119 300.625H79.1253V302.282H71.3831V300.591ZM85.0061 300.689C85.2253 300.693 85.4446 300.676 85.6595 300.638C85.8788 300.6 86.0894 300.544 86.2958 300.463C86.5021 300.386 86.6956 300.288 86.8847 300.173C87.0696 300.053 87.2415 299.921 87.4006 299.767L88.5913 301.044C87.8047 301.846 86.717 302.44 85.0233 302.44C82.1259 302.44 80.2516 300.527 80.2516 297.944C80.2387 297.35 80.3462 296.761 80.5697 296.215C80.7889 295.664 81.1242 295.165 81.5455 294.746C81.9625 294.323 82.4655 293.995 83.02 293.768C83.5703 293.546 84.1635 293.435 84.7611 293.448C87.6413 293.448 89.2749 295.621 89.1287 298.64H82.3236C82.5644 299.895 83.4542 300.693 85.0018 300.693L85.0061 300.689ZM87.0782 297.201C86.8933 296.031 86.1883 295.169 84.7826 295.169C83.4757 295.169 82.5601 295.903 82.3279 297.201C82.3279 297.201 87.0824 297.201 87.0782 297.201ZM100.448 297.944C100.448 295.186 102.528 293.453 104.815 293.453C105.09 293.448 105.365 293.474 105.632 293.529C105.899 293.585 106.161 293.67 106.41 293.781C106.659 293.892 106.9 294.029 107.119 294.191C107.339 294.353 107.536 294.541 107.717 294.746V289.653H109.57V302.26H107.717V301.073C107.541 301.287 107.343 301.479 107.124 301.65C106.904 301.821 106.668 301.966 106.414 302.085C106.165 302.201 105.899 302.29 105.628 302.35C105.357 302.41 105.077 302.44 104.798 302.435C102.58 302.435 100.452 300.689 100.452 297.944H100.448ZM107.82 297.927C107.79 296.825 107.098 295.848 106.062 295.446C105.03 295.045 103.852 295.301 103.078 296.091C102.305 296.881 102.081 298.055 102.515 299.071C102.945 300.083 103.947 300.745 105.06 300.745C106.651 300.745 107.816 299.485 107.82 297.927ZM121.417 300.424C121.42 300.424 121.422 300.424 121.422 300.424L121.417 300.429V300.424ZM123.094 299.566C123.201 299.763 123.339 299.942 123.498 300.1C123.657 300.258 123.838 300.395 124.035 300.506C124.229 300.617 124.439 300.698 124.659 300.753C124.878 300.809 125.101 300.834 125.329 300.826C126.378 300.826 126.92 300.292 126.92 299.686C126.92 298.994 125.91 298.841 124.805 298.614C123.326 298.303 121.783 297.82 121.783 296.044C121.783 294.678 123.094 293.414 125.153 293.431C126.778 293.431 127.986 294.072 128.67 295.105L127.113 295.95C127.006 295.792 126.881 295.651 126.739 295.523C126.593 295.399 126.434 295.293 126.266 295.207C126.094 295.122 125.914 295.058 125.729 295.015C125.54 294.977 125.351 294.96 125.157 294.964C124.164 294.964 123.657 295.451 123.657 296.001C123.657 296.625 124.457 296.795 125.716 297.073C127.152 297.385 128.773 297.85 128.773 299.647C128.773 300.839 127.724 302.444 125.243 302.427C123.429 302.427 122.157 301.701 121.422 300.429L123.094 299.566ZM133.798 298.426L132.332 300.015V302.256H130.479V289.648H132.332V297.906L136.261 293.623H138.518L135.109 297.321L138.604 302.26H136.511L133.802 298.426H133.798ZM94.8462 293.453C94.8433 293.453 94.8419 293.453 94.8419 293.453H94.8462ZM94.8419 293.453C97.0343 293.453 98.8828 294.87 98.8828 297.218V302.265H97.0085V297.453C97.0085 296.036 96.3121 295.19 94.9107 295.19C93.5092 295.19 92.6881 296.04 92.6881 297.453V302.265H90.801V297.218C90.801 294.87 92.6409 293.453 94.8419 293.453Z" fill="#03363D"/>
</g>
<g filter="url(#filter9_d_44_2400)">
<rect x="45" y="359" width="120" height="120" rx="12.265" fill="white"/>
</g>
<g clip-path="url(#clip7_44_2400)">
<path fill-rule="evenodd" clip-rule="evenodd" d="M99.5665 402.666C101.486 400.678 104.161 399.444 107.117 399.444C111.048 399.444 114.478 401.623 116.304 404.857C116.711 404.676 117.127 404.517 117.551 404.38C117.975 404.242 118.406 404.127 118.842 404.035C119.278 403.943 119.719 403.874 120.162 403.828C120.605 403.782 121.051 403.759 121.497 403.76C128.586 403.76 134.332 409.521 134.332 416.628C134.332 423.736 128.586 429.497 121.497 429.497C120.63 429.497 119.785 429.411 118.967 429.247C117.359 432.097 114.293 434.023 110.776 434.023C109.304 434.023 107.911 433.686 106.671 433.084C105.041 436.896 101.242 439.567 96.8159 439.567C92.2065 439.567 88.2767 436.668 86.7691 432.603C86.6013 432.638 86.4327 432.669 86.2633 432.696C86.094 432.722 85.9239 432.744 85.7534 432.762C85.5829 432.779 85.4117 432.793 85.2404 432.802C85.0692 432.811 84.898 432.815 84.7264 432.815C79.2371 432.815 74.7873 428.347 74.7873 422.836C74.7854 421.966 74.8975 421.1 75.1211 420.259C75.3446 419.418 75.6777 418.61 76.1116 417.855C76.5459 417.1 77.0773 416.404 77.6926 415.786C78.3079 415.167 79.0019 414.631 79.7568 414.191C79.5999 413.832 79.4618 413.466 79.3432 413.093C79.2243 412.72 79.1246 412.341 79.0448 411.958C78.965 411.575 78.9052 411.188 78.8653 410.798C78.8254 410.409 78.8054 410.018 78.8062 409.627C78.8062 403.287 83.9838 398.149 90.3711 398.149C91.2577 398.148 92.1417 398.248 93.0054 398.448C93.8688 398.648 94.7065 398.947 95.5013 399.337C96.2961 399.727 97.0432 400.208 97.7274 400.768C98.4119 401.328 99.0287 401.965 99.5665 402.666Z" fill="#00A1E0"/>
<path fill-rule="evenodd" clip-rule="evenodd" d="M83.4122 419.628L83.6531 418.964C83.6915 418.85 83.778 418.887 83.8134 418.909C83.8804 418.948 83.9286 418.984 84.0151 419.034C84.7249 419.48 85.3827 419.484 85.5878 419.484C86.1192 419.484 86.4489 419.205 86.4489 418.828V418.808C86.4489 418.398 85.9408 418.243 85.3541 418.064L85.2239 418.023C84.4182 417.795 83.5567 417.465 83.5567 416.452V416.431C83.5567 415.469 84.3376 414.798 85.455 414.798L85.5777 414.797C86.234 414.797 86.8681 414.987 87.328 415.264C87.3698 415.29 87.4101 415.337 87.3867 415.401L87.1391 416.065C87.0954 416.179 86.9765 416.104 86.9765 416.104C86.8568 416.042 86.7342 415.987 86.6081 415.939C86.4824 415.891 86.3541 415.851 86.2235 415.817C86.0933 415.784 85.9608 415.758 85.8276 415.74C85.694 415.722 85.5596 415.711 85.4253 415.708C84.9511 415.708 84.6462 415.958 84.6462 416.297V416.319C84.6462 416.714 85.1686 416.883 85.7741 417.079L85.8784 417.111C86.6815 417.364 87.5384 417.713 87.5384 418.674V418.694C87.5384 419.733 86.7789 420.378 85.5581 420.378C84.9582 420.378 84.3843 420.286 83.7776 419.966C83.6629 419.9 83.5496 419.843 83.4374 419.762C83.4258 419.745 83.3746 419.725 83.4115 419.628H83.4122ZM101.534 418.964C101.57 418.855 101.672 418.895 101.694 418.909C101.761 418.949 101.81 418.984 101.896 419.034C102.607 419.48 103.264 419.484 103.471 419.484C104 419.484 104.33 419.205 104.33 418.828V418.808C104.33 418.398 103.823 418.243 103.236 418.064L103.106 418.023C102.299 417.795 101.438 417.465 101.438 416.452V416.431C101.438 415.469 102.219 414.798 103.337 414.798L103.458 414.797C104.115 414.797 104.75 414.987 105.21 415.264C105.25 415.29 105.291 415.337 105.269 415.401C105.246 415.46 105.043 416.003 105.021 416.065C104.976 416.179 104.859 416.104 104.859 416.104C104.739 416.042 104.616 415.987 104.49 415.939C104.365 415.891 104.236 415.851 104.106 415.817C103.975 415.784 103.843 415.758 103.709 415.74C103.576 415.722 103.441 415.711 103.307 415.708C102.832 415.708 102.528 415.958 102.528 416.297V416.319C102.528 416.714 103.049 416.883 103.655 417.079L103.76 417.111C104.563 417.364 105.419 417.713 105.419 418.674V418.694C105.419 419.733 104.661 420.378 103.439 420.378C102.839 420.378 102.265 420.286 101.659 419.966C101.544 419.9 101.431 419.843 101.318 419.762C101.307 419.745 101.255 419.725 101.293 419.628L101.534 418.964ZM114.52 416.503C114.62 416.837 114.669 417.204 114.669 417.592C114.669 417.98 114.62 418.345 114.52 418.68C114.497 418.76 114.47 418.839 114.439 418.916C114.407 418.993 114.373 419.069 114.334 419.143C114.295 419.217 114.252 419.289 114.206 419.359C114.16 419.429 114.11 419.496 114.057 419.56C114.004 419.623 113.947 419.682 113.887 419.739C113.827 419.795 113.764 419.848 113.698 419.897C113.632 419.946 113.564 419.992 113.493 420.034C113.421 420.075 113.348 420.113 113.273 420.147C112.96 420.289 112.593 420.36 112.18 420.36C111.767 420.36 111.399 420.289 111.087 420.147C111.012 420.113 110.939 420.075 110.868 420.034C110.797 419.992 110.728 419.946 110.662 419.897C110.596 419.848 110.533 419.795 110.473 419.739C110.413 419.682 110.357 419.623 110.304 419.56C110.25 419.496 110.2 419.429 110.154 419.359C110.108 419.289 110.066 419.218 110.027 419.143C109.988 419.07 109.953 418.994 109.922 418.916C109.891 418.839 109.864 418.76 109.84 418.68C109.815 418.592 109.792 418.503 109.773 418.413C109.754 418.323 109.739 418.232 109.726 418.141C109.713 418.05 109.704 417.959 109.698 417.867C109.692 417.775 109.69 417.684 109.69 417.592C109.69 417.203 109.741 416.837 109.84 416.503C109.941 416.166 110.096 415.87 110.303 415.623C110.356 415.56 110.413 415.5 110.473 415.444C110.533 415.387 110.596 415.334 110.662 415.284C110.728 415.234 110.797 415.188 110.868 415.146C110.939 415.104 111.012 415.065 111.087 415.031C111.399 414.886 111.766 414.813 112.18 414.813C112.594 414.813 112.961 414.886 113.273 415.031C113.584 415.176 113.849 415.374 114.057 415.623C114.264 415.87 114.421 416.166 114.52 416.503ZM113.174 416.22C112.959 415.898 112.633 415.743 112.18 415.743C111.727 415.743 111.404 415.898 111.192 416.22C110.979 416.543 110.87 417.004 110.87 417.592C110.87 418.178 110.979 418.643 111.193 418.969C111.404 419.294 111.727 419.451 112.18 419.451C112.633 419.451 112.959 419.293 113.174 418.969C113.39 418.643 113.501 418.178 113.501 417.592C113.501 417.004 113.391 416.543 113.174 416.22ZM122.893 419.294L123.143 419.981C123.175 420.065 123.102 420.102 123.102 420.102C122.716 420.251 122.18 420.357 121.658 420.357C120.774 420.357 120.097 420.104 119.645 419.604C119.195 419.106 118.966 418.428 118.966 417.588C118.966 417.199 119.023 416.83 119.134 416.497C119.244 416.161 119.41 415.864 119.629 415.617C119.686 415.554 119.745 415.494 119.809 415.437C119.872 415.38 119.938 415.326 120.007 415.277C120.076 415.227 120.148 415.181 120.222 415.139C120.296 415.097 120.372 415.059 120.45 415.026C120.776 414.881 121.159 414.809 121.586 414.809C121.874 414.809 122.131 414.826 122.351 414.859C122.586 414.895 122.9 414.979 123.032 415.03C123.056 415.039 123.123 415.072 123.096 415.15C122.999 415.42 122.933 415.596 122.844 415.842C122.805 415.946 122.726 415.912 122.726 415.912C122.39 415.807 122.069 415.759 121.649 415.759C121.144 415.759 120.765 415.926 120.517 416.252C120.267 416.582 120.127 417.013 120.125 417.588C120.123 418.217 120.282 418.684 120.564 418.973C120.844 419.261 121.236 419.406 121.73 419.406C121.93 419.406 122.119 419.393 122.289 419.367C122.457 419.34 122.614 419.288 122.763 419.231C122.763 419.231 122.859 419.195 122.893 419.294ZM128.212 417.789C128.203 417.877 128.112 417.878 128.112 417.878L124.661 417.875C124.683 418.397 124.808 418.766 125.062 419.016C125.312 419.261 125.707 419.418 126.244 419.419C127.063 419.421 127.413 419.257 127.661 419.166C127.661 419.166 127.755 419.132 127.791 419.225L128.016 419.854C128.061 419.96 128.025 419.997 127.986 420.018C127.77 420.136 127.246 420.358 126.248 420.36C125.764 420.362 125.343 420.293 124.996 420.159C124.914 420.129 124.833 420.094 124.755 420.055C124.677 420.016 124.601 419.972 124.528 419.924C124.455 419.876 124.385 419.823 124.318 419.767C124.251 419.711 124.188 419.651 124.128 419.588C124.07 419.526 124.017 419.46 123.966 419.392C123.916 419.324 123.87 419.253 123.828 419.18C123.786 419.107 123.748 419.031 123.714 418.954C123.681 418.876 123.651 418.797 123.627 418.716C123.6 418.628 123.577 418.538 123.557 418.448C123.537 418.357 123.521 418.266 123.508 418.174C123.495 418.083 123.485 417.991 123.479 417.899C123.473 417.806 123.47 417.714 123.471 417.621C123.471 417.233 123.521 416.864 123.623 416.527C123.723 416.187 123.88 415.888 124.089 415.636C124.143 415.572 124.201 415.511 124.262 415.453C124.322 415.396 124.386 415.341 124.453 415.291C124.52 415.24 124.589 415.193 124.662 415.151C124.733 415.108 124.808 415.069 124.884 415.034C125.201 414.886 125.593 414.813 126.024 414.813C126.393 414.813 126.731 414.892 127.011 415.012C127.227 415.105 127.445 415.271 127.668 415.509C127.809 415.659 128.023 415.988 128.109 416.312C128.331 417.085 128.215 417.752 128.212 417.789ZM127.139 417.028C127.113 416.714 127.052 416.432 126.91 416.22C126.693 415.898 126.395 415.722 125.943 415.722C125.49 415.722 125.168 415.898 124.955 416.22C124.816 416.432 124.726 416.702 124.677 417.028H127.139ZM100.571 417.789C100.562 417.877 100.471 417.878 100.471 417.878L97.0195 417.875C97.0417 418.397 97.1666 418.766 97.4214 419.016C97.6709 419.261 98.0661 419.418 98.602 419.419C99.4213 419.421 99.7724 419.257 100.02 419.166C100.02 419.166 100.114 419.132 100.15 419.225L100.375 419.854C100.42 419.96 100.384 419.997 100.346 420.018C100.128 420.136 99.6038 420.358 98.6073 420.36C98.1229 420.362 97.7014 420.293 97.3548 420.159C97.2728 420.129 97.1926 420.094 97.1143 420.055C97.0364 420.015 96.9604 419.971 96.8874 419.924C96.8144 419.875 96.744 419.823 96.677 419.767C96.61 419.711 96.5464 419.651 96.4862 419.588C96.429 419.526 96.3752 419.46 96.3255 419.392C96.2755 419.324 96.2296 419.253 96.1874 419.18C96.1453 419.107 96.1076 419.031 96.0741 418.954C96.0406 418.876 96.0113 418.797 95.9868 418.716C95.9597 418.628 95.9364 418.538 95.9165 418.448C95.8965 418.357 95.8796 418.266 95.8668 418.175C95.8536 418.083 95.8438 417.991 95.8378 417.899C95.8314 417.806 95.8288 417.714 95.8299 417.621C95.8299 417.233 95.8807 416.864 95.9808 416.527C96.0041 416.446 96.0316 416.366 96.0632 416.288C96.0948 416.209 96.1302 416.133 96.1693 416.058C96.2085 415.983 96.2518 415.91 96.2981 415.84C96.3447 415.769 96.3952 415.701 96.4486 415.636C96.5024 415.572 96.56 415.511 96.6206 415.453C96.6815 415.396 96.7451 415.341 96.8121 415.291C96.8787 415.24 96.9484 415.194 97.0203 415.151C97.0925 415.108 97.1666 415.069 97.243 415.034C97.5607 414.886 97.9528 414.813 98.3826 414.813C98.4673 414.813 98.552 414.817 98.6363 414.825C98.7206 414.834 98.8041 414.846 98.8873 414.863C98.9701 414.88 99.0521 414.901 99.133 414.926C99.2139 414.95 99.2933 414.98 99.3712 415.012C99.5873 415.105 99.8048 415.271 100.027 415.509C100.168 415.659 100.382 415.988 100.468 416.312C100.689 417.085 100.575 417.752 100.571 417.789ZM99.4981 417.028C99.4721 416.714 99.4104 416.432 99.2689 416.22C99.054 415.898 98.7544 415.722 98.3021 415.722C97.8486 415.722 97.5264 415.898 97.3146 416.22C97.1738 416.432 97.0846 416.702 97.0346 417.028H99.4981ZM91.5182 416.932V416.786C91.5182 416.329 91.4222 416.113 91.234 415.969C91.0414 415.823 90.7535 415.747 90.3809 415.747C90.3809 415.747 89.5409 415.737 88.8767 416.095C88.8462 416.113 88.8206 416.124 88.8206 416.124C88.8206 416.124 88.7374 416.153 88.7073 416.068L88.4631 415.416C88.4254 415.322 88.4935 415.279 88.4935 415.279C88.8044 415.038 89.5571 414.893 89.5571 414.893C89.6335 414.88 89.7102 414.868 89.787 414.858C89.8638 414.847 89.9409 414.839 90.0181 414.831C90.0952 414.825 90.1728 414.819 90.2503 414.815C90.3274 414.811 90.405 414.809 90.4825 414.808C91.1716 414.808 91.7048 414.967 92.0676 415.282C92.4312 415.599 92.616 416.109 92.616 416.796L92.6178 419.934C92.6178 419.934 92.625 420.024 92.5384 420.045C92.5384 420.045 92.4116 420.08 92.2976 420.107C92.1824 420.133 91.7669 420.217 91.4275 420.274C91.3409 420.288 91.254 420.301 91.1671 420.312C91.0797 420.323 90.9924 420.332 90.9051 420.339C90.8174 420.346 90.7301 420.352 90.6424 420.355C90.5548 420.359 90.4667 420.361 90.379 420.361C90.0437 420.361 89.7362 420.33 89.4653 420.268C89.4024 420.255 89.3403 420.239 89.279 420.22C89.2176 420.2 89.1574 420.178 89.0987 420.152C89.0396 420.127 88.982 420.098 88.926 420.067C88.8699 420.036 88.8153 420.002 88.7626 419.965C88.7148 419.931 88.6693 419.893 88.626 419.853C88.5827 419.813 88.5421 419.77 88.5045 419.725C88.4664 419.68 88.4314 419.632 88.3995 419.583C88.3675 419.533 88.3389 419.482 88.3133 419.429C88.2072 419.213 88.1537 418.95 88.1537 418.646C88.1537 418.347 88.2169 418.081 88.3389 417.855C88.4612 417.63 88.629 417.439 88.8402 417.289C88.8943 417.251 88.9504 417.215 89.008 417.183C89.0656 417.15 89.1247 417.119 89.1849 417.091C89.2455 417.064 89.3068 417.038 89.3693 417.016C89.4318 416.994 89.4954 416.974 89.5597 416.957C89.8288 416.886 90.1148 416.849 90.4102 416.849C90.627 416.849 90.808 416.854 90.9488 416.865C90.9488 416.865 91.2212 416.889 91.5182 416.932ZM90.5875 419.475C91.0809 419.445 91.5186 419.352 91.5186 419.352V417.792C91.5186 417.792 91.0771 417.72 90.5815 417.713C89.8788 417.705 89.5793 417.962 89.5812 417.961C89.3742 418.107 89.2733 418.324 89.2733 418.625C89.2733 418.816 89.3079 418.967 89.3776 419.072C89.4212 419.141 89.44 419.167 89.5755 419.275C89.5736 419.274 89.8849 419.518 90.5875 419.475ZM118.526 415.817C118.504 415.876 118.467 415.917 118.4 415.91C118.4 415.91 118.202 415.865 118.021 415.865C117.897 415.865 117.719 415.881 117.559 415.93C117.519 415.942 117.48 415.956 117.442 415.973C117.403 415.99 117.366 416.01 117.33 416.031C117.294 416.052 117.26 416.076 117.227 416.102C117.194 416.127 117.162 416.154 117.133 416.184C117.006 416.305 116.904 416.475 116.83 416.689C116.754 416.903 116.716 417.245 116.716 417.588V420.143C116.716 420.157 116.713 420.171 116.708 420.183C116.702 420.196 116.695 420.207 116.685 420.217C116.675 420.227 116.664 420.234 116.651 420.239C116.638 420.245 116.625 420.248 116.611 420.248H115.705C115.692 420.248 115.678 420.245 115.665 420.24C115.652 420.235 115.64 420.227 115.63 420.218C115.62 420.208 115.613 420.197 115.607 420.184C115.602 420.171 115.599 420.158 115.599 420.144V415.028C115.599 414.971 115.641 414.925 115.699 414.925H116.583C116.641 414.925 116.683 414.971 116.683 415.028V415.446C116.815 415.27 117.052 415.115 117.267 415.019C117.481 414.922 117.722 414.851 118.156 414.877C118.382 414.89 118.676 414.952 118.735 414.974C118.746 414.979 118.757 414.986 118.766 414.995C118.775 415.003 118.782 415.014 118.787 415.025C118.791 415.036 118.794 415.049 118.794 415.061C118.794 415.073 118.791 415.086 118.786 415.097C118.754 415.191 118.586 415.661 118.526 415.817ZM110.339 412.846L110.074 413.566C110.051 413.621 110.037 413.653 109.925 413.619C109.887 413.608 109.85 413.597 109.812 413.588C109.774 413.58 109.735 413.572 109.697 413.566C109.658 413.56 109.62 413.556 109.581 413.553C109.542 413.55 109.503 413.548 109.464 413.548C109.327 413.548 109.203 413.566 109.094 413.602C109.067 413.611 109.04 413.621 109.014 413.633C108.988 413.645 108.963 413.658 108.939 413.673C108.914 413.688 108.891 413.704 108.869 413.722C108.846 413.74 108.825 413.759 108.805 413.779C108.778 413.805 108.753 413.832 108.729 413.86C108.706 413.889 108.684 413.918 108.663 413.949C108.643 413.979 108.624 414.012 108.608 414.044C108.591 414.077 108.576 414.111 108.563 414.145C108.436 414.508 108.387 414.894 108.38 414.919H109.483C109.577 414.919 109.606 414.962 109.597 415.029L109.468 415.742C109.447 415.846 109.352 415.842 109.352 415.842H108.216L107.439 420.214C107.422 420.312 107.403 420.41 107.382 420.507C107.361 420.604 107.338 420.701 107.312 420.797C107.287 420.893 107.26 420.989 107.23 421.084C107.201 421.178 107.169 421.273 107.135 421.366C107.014 421.683 106.888 421.914 106.686 422.134C106.643 422.184 106.597 422.23 106.548 422.274C106.5 422.317 106.448 422.357 106.395 422.395C106.341 422.432 106.285 422.466 106.227 422.496C106.169 422.526 106.11 422.553 106.048 422.576C105.809 422.663 105.519 422.708 105.201 422.708C105.051 422.708 104.888 422.705 104.696 422.659C104.669 422.653 104.642 422.647 104.616 422.64C104.589 422.633 104.563 422.626 104.536 422.618C104.51 422.611 104.484 422.603 104.458 422.594C104.431 422.586 104.406 422.577 104.38 422.568C104.337 422.553 104.303 422.499 104.328 422.43C104.351 422.362 104.556 421.806 104.583 421.733C104.618 421.645 104.708 421.679 104.708 421.679C104.769 421.705 104.812 421.722 104.894 421.738C104.976 421.754 105.087 421.768 105.171 421.768C105.322 421.768 105.458 421.75 105.577 421.71C105.721 421.664 105.806 421.581 105.892 421.469C105.984 421.352 106.058 421.193 106.134 420.981C106.21 420.765 106.28 420.48 106.34 420.135L107.114 415.843H106.352C106.26 415.843 106.229 415.8 106.24 415.732L106.367 415.018C106.388 414.915 106.484 414.919 106.484 414.919H107.267L107.309 414.687C107.426 413.999 107.659 413.475 108.003 413.131C108.348 412.785 108.84 412.61 109.464 412.61C109.642 412.61 109.8 412.622 109.934 412.646C110.065 412.67 110.164 412.693 110.275 412.727C110.299 412.737 110.364 412.768 110.339 412.846ZM94.7573 420.248H93.8424C93.7837 420.248 93.7438 420.201 93.7438 420.144V412.823C93.7438 412.766 93.7845 412.72 93.8417 412.72H94.7573C94.816 412.72 94.8563 412.766 94.8563 412.823V420.143C94.8563 420.202 94.816 420.248 94.7573 420.248Z" fill="white"/>
</g>
<g filter="url(#filter10_d_44_2400)">
<rect x="465" y="47" width="120" height="120" rx="12.265" fill="white"/>
</g>
<path d="M548.404 99.0534C548.404 111.267 540.523 119.621 529.255 119.621C523.898 119.621 519.483 117.414 517.83 114.655L517.908 117.492V134.984H506.405V89.7543C506.405 89.1251 506.249 88.9651 505.538 88.9651H501.596V79.3532H511.211C515.623 79.3532 516.728 83.1354 517.041 84.7919C518.776 81.877 523.343 78.4894 529.806 78.4894C540.918 78.4858 548.404 86.7577 548.404 99.0534ZM536.663 99.1316C536.663 92.5909 532.408 88.1013 527.047 88.1013C522.636 88.1013 517.67 91.0162 517.67 99.2134C517.67 104.57 520.663 110.165 526.891 110.165C531.462 110.162 536.663 106.852 536.663 99.1316Z" fill="#017737"/>
<g filter="url(#filter11_d_44_2400)">
<rect x="465" y="187" width="120" height="120" rx="12.265" fill="white"/>
</g>
<g clip-path="url(#clip8_44_2400)">
<path d="M544.527 229.062C544.487 228.771 544.232 228.61 544.021 228.592C543.811 228.575 539.358 228.245 539.358 228.245C539.358 228.245 536.265 225.178 535.925 224.839C535.586 224.499 534.922 224.602 534.665 224.678C534.627 224.689 533.989 224.886 532.934 225.212C531.901 222.242 530.077 219.513 526.87 219.513C526.781 219.513 526.69 219.517 526.599 219.522C525.687 218.317 524.557 217.793 523.58 217.793C516.108 217.793 512.538 227.124 511.419 231.866C508.515 232.765 506.453 233.403 506.189 233.486C504.568 233.994 504.517 234.045 504.304 235.57C504.144 236.725 499.904 269.484 499.904 269.484L532.948 275.668L550.852 271.799C550.852 271.799 544.567 229.353 544.527 229.062ZM531.108 225.776L528.312 226.641C528.313 226.444 528.314 226.25 528.314 226.038C528.314 224.193 528.057 222.707 527.646 221.529C529.298 221.736 530.399 223.614 531.108 225.776ZM525.595 221.895C526.055 223.045 526.354 224.695 526.354 226.923C526.354 227.037 526.353 227.141 526.352 227.246C524.533 227.809 522.557 228.42 520.577 229.033C521.689 224.746 523.773 222.676 525.595 221.895ZM523.375 219.796C523.698 219.796 524.023 219.905 524.334 220.119C521.939 221.244 519.372 224.079 518.288 229.741L513.723 231.153C514.993 226.835 518.008 219.796 523.375 219.796Z" fill="#95BF46"/>
<path d="M544.021 228.592C543.811 228.575 539.358 228.245 539.358 228.245C539.358 228.245 536.265 225.178 535.925 224.839C535.798 224.712 535.627 224.647 535.448 224.62L532.949 275.668L550.852 271.799C550.852 271.799 544.567 229.353 544.527 229.062C544.487 228.771 544.232 228.61 544.021 228.592Z" fill="#5E8E3E"/>
<path d="M526.87 238.474L524.662 245.034C524.662 245.034 522.728 244.003 520.357 244.003C516.881 244.003 516.706 246.182 516.706 246.731C516.706 249.727 524.524 250.875 524.524 257.892C524.524 263.413 521.019 266.969 516.292 266.969C510.62 266.969 507.719 263.442 507.719 263.442L509.238 258.43C509.238 258.43 512.219 260.987 514.735 260.987C516.379 260.987 517.048 259.694 517.048 258.749C517.048 254.841 510.634 254.667 510.634 248.245C510.634 242.84 514.518 237.61 522.357 237.61C525.378 237.61 526.87 238.474 526.87 238.474Z" fill="white"/>
</g>
<g filter="url(#filter12_d_44_2400)">
<rect x="465" y="327" width="120" height="120" rx="12.265" fill="white"/>
</g>
<g clip-path="url(#clip9_44_2400)">
<path d="M509.188 394.187C509.188 397.367 506.618 399.937 503.438 399.937C500.259 399.937 497.689 397.367 497.689 394.187C497.689 391.008 500.259 388.438 503.438 388.438H509.188V394.187ZM512.063 394.187C512.063 391.008 514.633 388.438 517.813 388.438C520.992 388.438 523.562 391.008 523.562 394.187V408.562C523.562 411.741 520.992 414.311 517.813 414.311C514.633 414.311 512.063 411.741 512.063 408.562V394.187Z" fill="#E01E5A"/>
<path d="M517.813 371.101C514.633 371.101 512.063 368.531 512.063 365.352C512.063 362.172 514.633 359.602 517.813 359.602C520.993 359.602 523.563 362.172 523.563 365.352V371.101H517.813ZM517.813 374.02C520.993 374.02 523.563 376.59 523.563 379.769C523.563 382.949 520.993 385.519 517.813 385.519H503.395C500.215 385.519 497.645 382.949 497.645 379.769C497.645 376.59 500.215 374.02 503.395 374.02H517.813Z" fill="#36C5F0"/>
<path d="M540.855 379.769C540.855 376.59 543.425 374.02 546.605 374.02C549.785 374.02 552.355 376.59 552.355 379.769C552.355 382.949 549.785 385.519 546.605 385.519H540.855V379.769ZM537.98 379.769C537.98 382.949 535.41 385.519 532.231 385.519C529.051 385.519 526.481 382.949 526.481 379.769V365.352C526.481 362.172 529.051 359.602 532.231 359.602C535.41 359.602 537.98 362.172 537.98 365.352V379.769Z" fill="#2EB67D"/>
<path d="M532.231 402.812C535.41 402.812 537.98 405.382 537.98 408.562C537.98 411.741 535.41 414.311 532.231 414.311C529.051 414.311 526.481 411.741 526.481 408.562V402.812H532.231ZM532.231 399.937C529.051 399.937 526.481 397.367 526.481 394.187C526.481 391.008 529.051 388.438 532.231 388.438H546.649C549.828 388.438 552.398 391.008 552.398 394.187C552.398 397.367 549.828 399.937 546.649 399.937H532.231Z" fill="#ECB22E"/>
</g>
</g>
<defs>
<filter id="filter0_d_44_2400" x="162" y="384.252" width="166" height="166" filterUnits="userSpaceOnUse" color-interpolation-filters="sRGB">
<feFlood flood-opacity="0" result="BackgroundImageFix"/>
<feColorMatrix in="SourceAlpha" type="matrix" values="0 0 0 0 0 0 0 0 0 0 0 0 0 0 0 0 0 0 127 0" result="hardAlpha"/>
<feOffset dy="5.25169"/>
<feGaussianBlur stdDeviation="11.5"/>
<feComposite in2="hardAlpha" operator="out"/>
<feColorMatrix type="matrix" values="0 0 0 0 0.182811 0 0 0 0 0.155278 0 0 0 0 0.358333 0 0 0 0.17 0"/>
<feBlend mode="normal" in2="BackgroundImageFix" result="effect1_dropShadow_44_2400"/>
<feBlend mode="normal" in="SourceGraphic" in2="effect1_dropShadow_44_2400" result="shape"/>
</filter>
<filter id="filter1_d_44_2400" x="162" y="104.252" width="166" height="166" filterUnits="userSpaceOnUse" color-interpolation-filters="sRGB">
<feFlood flood-opacity="0" result="BackgroundImageFix"/>
<feColorMatrix in="SourceAlpha" type="matrix" values="0 0 0 0 0 0 0 0 0 0 0 0 0 0 0 0 0 0 127 0" result="hardAlpha"/>
<feOffset dy="5.25169"/>
<feGaussianBlur stdDeviation="11.5"/>
<feComposite in2="hardAlpha" operator="out"/>
<feColorMatrix type="matrix" values="0 0 0 0 0.182811 0 0 0 0 0.155278 0 0 0 0 0.358333 0 0 0 0.17 0"/>
<feBlend mode="normal" in2="BackgroundImageFix" result="effect1_dropShadow_44_2400"/>
<feBlend mode="normal" in="SourceGraphic" in2="effect1_dropShadow_44_2400" result="shape"/>
</filter>
<filter id="filter2_d_44_2400" x="162" y="244.252" width="166" height="166" filterUnits="userSpaceOnUse" color-interpolation-filters="sRGB">
<feFlood flood-opacity="0" result="BackgroundImageFix"/>
<feColorMatrix in="SourceAlpha" type="matrix" values="0 0 0 0 0 0 0 0 0 0 0 0 0 0 0 0 0 0 127 0" result="hardAlpha"/>
<feOffset dy="5.25169"/>
<feGaussianBlur stdDeviation="11.5"/>
<feComposite in2="hardAlpha" operator="out"/>
<feColorMatrix type="matrix" values="0 0 0 0 0.182811 0 0 0 0 0.155278 0 0 0 0 0.358333 0 0 0 0.17 0"/>
<feBlend mode="normal" in2="BackgroundImageFix" result="effect1_dropShadow_44_2400"/>
<feBlend mode="normal" in="SourceGraphic" in2="effect1_dropShadow_44_2400" result="shape"/>
</filter>
<filter id="filter3_d_44_2400" x="302" y="61.2517" width="166" height="166" filterUnits="userSpaceOnUse" color-interpolation-filters="sRGB">
<feFlood flood-opacity="0" result="BackgroundImageFix"/>
<feColorMatrix in="SourceAlpha" type="matrix" values="0 0 0 0 0 0 0 0 0 0 0 0 0 0 0 0 0 0 127 0" result="hardAlpha"/>
<feOffset dy="5.25169"/>
<feGaussianBlur stdDeviation="11.5"/>
<feComposite in2="hardAlpha" operator="out"/>
<feColorMatrix type="matrix" values="0 0 0 0 0.182811 0 0 0 0 0.155278 0 0 0 0 0.358333 0 0 0 0.17 0"/>
<feBlend mode="normal" in2="BackgroundImageFix" result="effect1_dropShadow_44_2400"/>
<feBlend mode="normal" in="SourceGraphic" in2="effect1_dropShadow_44_2400" result="shape"/>
</filter>
<filter id="filter4_d_44_2400" x="302" y="201.252" width="166" height="166" filterUnits="userSpaceOnUse" color-interpolation-filters="sRGB">
<feFlood flood-opacity="0" result="BackgroundImageFix"/>
<feColorMatrix in="SourceAlpha" type="matrix" values="0 0 0 0 0 0 0 0 0 0 0 0 0 0 0 0 0 0 127 0" result="hardAlpha"/>
<feOffset dy="5.25169"/>
<feGaussianBlur stdDeviation="11.5"/>
<feComposite in2="hardAlpha" operator="out"/>
<feColorMatrix type="matrix" values="0 0 0 0 0.182811 0 0 0 0 0.155278 0 0 0 0 0.358333 0 0 0 0.17 0"/>
<feBlend mode="normal" in2="BackgroundImageFix" result="effect1_dropShadow_44_2400"/>
<feBlend mode="normal" in="SourceGraphic" in2="effect1_dropShadow_44_2400" result="shape"/>
</filter>
<filter id="filter5_d_44_2400" x="302" y="341.252" width="166" height="166" filterUnits="userSpaceOnUse" color-interpolation-filters="sRGB">
<feFlood flood-opacity="0" result="BackgroundImageFix"/>
<feColorMatrix in="SourceAlpha" type="matrix" values="0 0 0 0 0 0 0 0 0 0 0 0 0 0 0 0 0 0 127 0" result="hardAlpha"/>
<feOffset dy="5.25169"/>
<feGaussianBlur stdDeviation="11.5"/>
<feComposite in2="hardAlpha" operator="out"/>
<feColorMatrix type="matrix" values="0 0 0 0 0.182811 0 0 0 0 0.155278 0 0 0 0 0.358333 0 0 0 0.17 0"/>
<feBlend mode="normal" in2="BackgroundImageFix" result="effect1_dropShadow_44_2400"/>
<feBlend mode="normal" in="SourceGraphic" in2="effect1_dropShadow_44_2400" result="shape"/>
</filter>
<filter id="filter6_d_44_2400" x="21" y="61.2517" width="166" height="166" filterUnits="userSpaceOnUse" color-interpolation-filters="sRGB">
<feFlood flood-opacity="0" result="BackgroundImageFix"/>
<feColorMatrix in="SourceAlpha" type="matrix" values="0 0 0 0 0 0 0 0 0 0 0 0 0 0 0 0 0 0 127 0" result="hardAlpha"/>
<feOffset dy="5.25169"/>
<feGaussianBlur stdDeviation="11.5"/>
<feComposite in2="hardAlpha" operator="out"/>
<feColorMatrix type="matrix" values="0 0 0 0 0.182811 0 0 0 0 0.155278 0 0 0 0 0.358333 0 0 0 0.17 0"/>
<feBlend mode="normal" in2="BackgroundImageFix" result="effect1_dropShadow_44_2400"/>
<feBlend mode="normal" in="SourceGraphic" in2="effect1_dropShadow_44_2400" result="shape"/>
</filter>
<filter id="filter7_d_44_2400" x="-139.256" y="92.6743" width="486.511" height="475.339" filterUnits="userSpaceOnUse" color-interpolation-filters="sRGB">
<feFlood flood-opacity="0" result="BackgroundImageFix"/>
<feColorMatrix in="SourceAlpha" type="matrix" values="0 0 0 0 0 0 0 0 0 0 0 0 0 0 0 0 0 0 127 0" result="hardAlpha"/>
<feOffset dy="191.641"/>
<feGaussianBlur stdDeviation="107.798"/>
<feColorMatrix type="matrix" values="0 0 0 0 0 0 0 0 0 0 0 0 0 0 0 0 0 0 0.214965 0"/>
<feBlend mode="normal" in2="BackgroundImageFix" result="effect1_dropShadow_44_2400"/>
<feBlend mode="normal" in="SourceGraphic" in2="effect1_dropShadow_44_2400" result="shape"/>
</filter>
<filter id="filter8_d_44_2400" x="22" y="201.252" width="166" height="166" filterUnits="userSpaceOnUse" color-interpolation-filters="sRGB">
<feFlood flood-opacity="0" result="BackgroundImageFix"/>
<feColorMatrix in="SourceAlpha" type="matrix" values="0 0 0 0 0 0 0 0 0 0 0 0 0 0 0 0 0 0 127 0" result="hardAlpha"/>
<feOffset dy="5.25169"/>
<feGaussianBlur stdDeviation="11.5"/>
<feComposite in2="hardAlpha" operator="out"/>
<feColorMatrix type="matrix" values="0 0 0 0 0.182811 0 0 0 0 0.155278 0 0 0 0 0.358333 0 0 0 0.17 0"/>
<feBlend mode="normal" in2="BackgroundImageFix" result="effect1_dropShadow_44_2400"/>
<feBlend mode="normal" in="SourceGraphic" in2="effect1_dropShadow_44_2400" result="shape"/>
</filter>
<filter id="filter9_d_44_2400" x="22" y="341.252" width="166" height="166" filterUnits="userSpaceOnUse" color-interpolation-filters="sRGB">
<feFlood flood-opacity="0" result="BackgroundImageFix"/>
<feColorMatrix in="SourceAlpha" type="matrix" values="0 0 0 0 0 0 0 0 0 0 0 0 0 0 0 0 0 0 127 0" result="hardAlpha"/>
<feOffset dy="5.25169"/>
<feGaussianBlur stdDeviation="11.5"/>
<feComposite in2="hardAlpha" operator="out"/>
<feColorMatrix type="matrix" values="0 0 0 0 0.182811 0 0 0 0 0.155278 0 0 0 0 0.358333 0 0 0 0.17 0"/>
<feBlend mode="normal" in2="BackgroundImageFix" result="effect1_dropShadow_44_2400"/>
<feBlend mode="normal" in="SourceGraphic" in2="effect1_dropShadow_44_2400" result="shape"/>
</filter>
<filter id="filter10_d_44_2400" x="442" y="29.2517" width="166" height="166" filterUnits="userSpaceOnUse" color-interpolation-filters="sRGB">
<feFlood flood-opacity="0" result="BackgroundImageFix"/>
<feColorMatrix in="SourceAlpha" type="matrix" values="0 0 0 0 0 0 0 0 0 0 0 0 0 0 0 0 0 0 127 0" result="hardAlpha"/>
<feOffset dy="5.25169"/>
<feGaussianBlur stdDeviation="11.5"/>
<feComposite in2="hardAlpha" operator="out"/>
<feColorMatrix type="matrix" values="0 0 0 0 0.182811 0 0 0 0 0.155278 0 0 0 0 0.358333 0 0 0 0.17 0"/>
<feBlend mode="normal" in2="BackgroundImageFix" result="effect1_dropShadow_44_2400"/>
<feBlend mode="normal" in="SourceGraphic" in2="effect1_dropShadow_44_2400" result="shape"/>
</filter>
<filter id="filter11_d_44_2400" x="442" y="169.252" width="166" height="166" filterUnits="userSpaceOnUse" color-interpolation-filters="sRGB">
<feFlood flood-opacity="0" result="BackgroundImageFix"/>
<feColorMatrix in="SourceAlpha" type="matrix" values="0 0 0 0 0 0 0 0 0 0 0 0 0 0 0 0 0 0 127 0" result="hardAlpha"/>
<feOffset dy="5.25169"/>
<feGaussianBlur stdDeviation="11.5"/>
<feComposite in2="hardAlpha" operator="out"/>
<feColorMatrix type="matrix" values="0 0 0 0 0.182811 0 0 0 0 0.155278 0 0 0 0 0.358333 0 0 0 0.17 0"/>
<feBlend mode="normal" in2="BackgroundImageFix" result="effect1_dropShadow_44_2400"/>
<feBlend mode="normal" in="SourceGraphic" in2="effect1_dropShadow_44_2400" result="shape"/>
</filter>
<filter id="filter12_d_44_2400" x="442" y="309.252" width="166" height="166" filterUnits="userSpaceOnUse" color-interpolation-filters="sRGB">
<feFlood flood-opacity="0" result="BackgroundImageFix"/>
<feColorMatrix in="SourceAlpha" type="matrix" values="0 0 0 0 0 0 0 0 0 0 0 0 0 0 0 0 0 0 127 0" result="hardAlpha"/>
<feOffset dy="5.25169"/>
<feGaussianBlur stdDeviation="11.5"/>
<feComposite in2="hardAlpha" operator="out"/>
<feColorMatrix type="matrix" values="0 0 0 0 0.182811 0 0 0 0 0.155278 0 0 0 0 0.358333 0 0 0 0.17 0"/>
<feBlend mode="normal" in2="BackgroundImageFix" result="effect1_dropShadow_44_2400"/>
<feBlend mode="normal" in="SourceGraphic" in2="effect1_dropShadow_44_2400" result="shape"/>
</filter>
<linearGradient id="paint0_linear_44_2400" x1="222.257" y1="166.555" x2="240.513" y2="198.419" gradientUnits="userSpaceOnUse">
<stop stop-color="#5A62C3"/>
<stop offset="0.5" stop-color="#4D55BD"/>
<stop offset="1" stop-color="#3940AB"/>
</linearGradient>
<clipPath id="clip0_44_2400">
<rect width="602" height="604" fill="white"/>
</clipPath>
<clipPath id="clip1_44_2400">
<rect width="55.3191" height="55.3191" fill="white" transform="translate(217.34 434.34)"/>
</clipPath>
<clipPath id="clip2_44_2400">
<rect width="55.3191" height="51.0638" fill="white" transform="translate(217.34 156.894)"/>
</clipPath>
<clipPath id="clip3_44_2400">
<rect width="55.3191" height="55.3191" fill="white" transform="translate(217.34 294.34)"/>
</clipPath>
<clipPath id="clip4_44_2400">
<rect width="55.3191" height="55.3191" fill="white" transform="translate(357.34 251.34)"/>
</clipPath>
<clipPath id="clip5_44_2400">
<rect width="55.3191" height="55.3191" fill="white" transform="translate(357.34 391.34)"/>
</clipPath>
<clipPath id="clip6_44_2400">
<rect width="67.234" height="47.6892" fill="white" transform="translate(71.3831 254.745)"/>
</clipPath>
<clipPath id="clip7_44_2400">
<rect width="59.5745" height="41.4185" fill="white" transform="translate(74.7874 398.149)"/>
</clipPath>
<clipPath id="clip8_44_2400">
<rect width="51.0638" height="58.1741" fill="white" transform="translate(499.894 217.638)"/>
</clipPath>
<clipPath id="clip9_44_2400">
<rect width="55.3191" height="55.3191" fill="white" transform="translate(497.34 359.34)"/>
</clipPath>
</defs>
</svg>
